<svg width="148" height="48" viewBox="0 0 148 48" fill="none" xmlns="http://www.w3.org/2000/svg">
<rect x="0.5" y="0.5" width="147" height="47" rx="3.5" stroke="#3B587E"/>
<path d="M73.9613 25.2944C73.4989 25.2859 73.0395 25.3704 72.6105 25.5431C72.1814 25.7157 71.7915 25.9729 71.4639 26.2993C71.1363 26.6257 70.8777 27.0147 70.7034 27.4431C70.5292 27.8715 70.443 28.3306 70.4498 28.793C70.4442 29.2551 70.5312 29.7137 70.7059 30.1415C70.8805 30.5694 71.1392 30.9579 71.4665 31.2841C71.7939 31.6103 72.1834 31.8675 72.6119 32.0406C73.0404 32.2136 73.4992 32.299 73.9613 32.2917C74.4234 32.299 74.8822 32.2136 75.3107 32.0406C75.7392 31.8675 76.1287 31.6103 76.4561 31.2841C76.7834 30.9579 77.0421 30.5694 77.2167 30.1415C77.3914 29.7137 77.4784 29.2551 77.4728 28.793C77.4796 28.3306 77.3934 27.8715 77.2191 27.4431C77.0449 27.0147 76.7863 26.6257 76.4587 26.2993C76.1311 25.9729 75.7412 25.7157 75.3121 25.5431C74.8831 25.3704 74.4237 25.2859 73.9613 25.2944ZM73.9613 30.9123C73.6915 30.9061 73.4256 30.8459 73.1794 30.7354C72.9331 30.6248 72.7115 30.4661 72.5275 30.2687C72.3435 30.0712 72.2008 29.8389 72.1079 29.5855C72.015 29.3321 71.9738 29.0626 71.9866 28.793C71.9726 28.5231 72.013 28.2531 72.1055 27.9991C72.1979 27.7451 72.3405 27.5123 72.5247 27.3145C72.7089 27.1167 72.931 26.9579 73.1778 26.8476C73.4246 26.7374 73.691 26.6779 73.9613 26.6726C74.2315 26.6779 74.4979 26.7374 74.7446 26.8477C74.9914 26.9579 75.2134 27.1167 75.3975 27.3145C75.5817 27.5123 75.7241 27.7452 75.8165 27.9992C75.9088 28.2532 75.9491 28.5231 75.935 28.793C75.9479 29.0626 75.9068 29.332 75.814 29.5854C75.7212 29.8388 75.5787 30.0711 75.3948 30.2686C75.2108 30.4661 74.9893 30.6248 74.7431 30.7353C74.4969 30.8459 74.2311 30.9061 73.9613 30.9123ZM66.3011 25.2944C65.8386 25.2857 65.3791 25.3702 64.95 25.5428C64.5208 25.7153 64.1307 25.9725 63.803 26.2989C63.4753 26.6254 63.2166 27.0144 63.0423 27.4429C62.868 27.8713 62.7817 28.3305 62.7886 28.793C62.7829 29.2552 62.87 29.7138 63.0447 30.1418C63.2194 30.5697 63.4782 30.9583 63.8057 31.2845C64.1331 31.6107 64.5227 31.8679 64.9514 32.0409C65.38 32.2139 65.839 32.2991 66.3011 32.2917C66.7632 32.299 67.2221 32.2136 67.6506 32.0406C68.0791 31.8675 68.4685 31.6103 68.7959 31.2841C69.1233 30.9579 69.3819 30.5694 69.5566 30.1415C69.7312 29.7137 69.8183 29.2551 69.8126 28.793C69.8194 28.3306 69.7332 27.8715 69.559 27.4431C69.3848 27.0147 69.1261 26.6257 68.7985 26.2993C68.4709 25.9729 68.081 25.7157 67.6519 25.5431C67.2229 25.3704 66.7635 25.2859 66.3011 25.2944ZM66.3011 30.9123C66.0313 30.9061 65.7654 30.8459 65.5192 30.7354C65.2729 30.6248 65.0513 30.4661 64.8673 30.2687C64.6833 30.0712 64.5407 29.8389 64.4478 29.5855C64.3549 29.3321 64.3136 29.0626 64.3264 28.793C64.3124 28.5231 64.3528 28.2531 64.4453 27.9991C64.5377 27.7451 64.6803 27.5123 64.8645 27.3145C65.0487 27.1167 65.2708 26.9579 65.5176 26.8476C65.7644 26.7374 66.0309 26.6779 66.3011 26.6726C66.5713 26.6779 66.8377 26.7374 67.0845 26.8477C67.3312 26.9579 67.5532 27.1167 67.7374 27.3145C67.9215 27.5123 68.064 27.7452 68.1563 27.9992C68.2486 28.2532 68.2889 28.5231 68.2748 28.793C68.2876 29.0625 68.2463 29.3319 68.1535 29.5853C68.0607 29.8386 67.9181 30.0708 67.7342 30.2683C67.5503 30.4658 67.3288 30.6244 67.0827 30.7351C66.8366 30.8457 66.5709 30.9059 66.3011 30.9123ZM57.1877 26.3674V27.8517H60.7388C60.6877 28.5474 60.4032 29.2055 59.9314 29.7194C59.5753 30.082 59.1471 30.3661 58.6746 30.5533C58.2021 30.7405 57.6956 30.8267 57.1877 30.8063C56.6717 30.8062 56.1608 30.7036 55.6848 30.5045C55.2087 30.3054 54.7769 30.0137 54.4145 29.6464C54.052 29.2791 53.7662 28.8435 53.5734 28.3648C53.3807 27.8861 53.285 27.3739 53.2918 26.8579C53.2848 26.3418 53.3805 25.8295 53.5731 25.3507C53.7658 24.8719 54.0516 24.4361 54.4141 24.0687C54.7765 23.7013 55.2084 23.4095 55.6845 23.2103C56.1606 23.0111 56.6716 22.9085 57.1877 22.9084C58.185 22.8951 59.1472 23.2761 59.865 23.9686L60.9123 22.9213C60.4227 22.4361 59.8412 22.0536 59.2018 21.7961C58.5624 21.5387 57.878 21.4115 57.1888 21.422C55.74 21.421 54.3492 21.9907 53.3173 23.0077C52.2855 24.0247 51.6958 25.4071 51.6758 26.8558C51.6958 28.3043 52.2856 29.6866 53.3174 30.7035C54.3493 31.7203 55.7401 32.2897 57.1888 32.2885C57.8916 32.3183 58.5928 32.1985 59.2458 31.9368C59.8988 31.6752 60.4888 31.2778 60.9766 30.771C61.8421 29.8261 62.3034 28.5799 62.2617 27.2991C62.2654 26.9881 62.2389 26.6775 62.1824 26.3717L57.1877 26.3674ZM94.4552 27.5197C94.2446 26.8856 93.8438 26.3318 93.3073 25.9337C92.7707 25.5355 92.1246 25.3123 91.4567 25.2944C91.0069 25.2965 90.5623 25.3899 90.1498 25.5691C89.7373 25.7482 89.3655 26.0093 89.057 26.3365C88.7484 26.6636 88.5096 27.0501 88.3549 27.4724C88.2002 27.8946 88.133 28.344 88.1572 28.793C88.1475 29.2529 88.2305 29.7099 88.4012 30.137C88.572 30.5641 88.8269 30.9525 89.1509 31.2789C89.4748 31.6054 89.8612 31.8633 90.287 32.0373C90.7127 32.2113 91.1692 32.2978 91.6291 32.2917C92.2054 32.2948 92.7734 32.1548 93.2822 31.8841C93.791 31.6135 94.2246 31.2207 94.5441 30.741L93.3511 29.9453C93.172 30.2413 92.9192 30.4857 92.6174 30.6546C92.3155 30.8236 91.975 30.9113 91.6291 30.9091C91.2726 30.9229 90.9202 30.8293 90.6176 30.6404C90.315 30.4516 90.076 30.1762 89.9317 29.85L94.6094 27.9149L94.4552 27.5197ZM89.6843 28.6859C89.6678 28.4313 89.7023 28.176 89.7856 27.9349C89.869 27.6937 89.9996 27.4716 90.1698 27.2816C90.34 27.0915 90.5464 26.9373 90.7769 26.828C91.0075 26.7186 91.2575 26.6564 91.5123 26.6448C91.7778 26.6271 92.0427 26.6881 92.2737 26.8201C92.5047 26.9521 92.6917 27.1492 92.8114 27.3869L89.6843 28.6859ZM85.8815 32.0786H87.4193V21.7979H85.8826L85.8815 32.0786ZM83.3628 26.0751H83.3103C83.0766 25.8212 82.7914 25.6201 82.4737 25.4853C82.1561 25.3505 81.8133 25.285 81.4683 25.2933C80.562 25.3262 79.7044 25.7117 79.0781 26.3676C78.4518 27.0234 78.1064 27.898 78.1153 28.8048C78.1096 29.7081 78.4569 30.578 79.0832 31.229C79.7096 31.8799 80.5654 32.2605 81.4683 32.2895C81.8147 32.2987 82.159 32.2323 82.4771 32.0949C82.7952 31.9575 83.0796 31.7524 83.3103 31.4938H83.3628V31.9982C83.3628 33.3369 82.6485 34.0522 81.4951 34.0522C81.1109 34.0427 80.7382 33.9191 80.4245 33.6972C80.1108 33.4752 79.8702 33.1648 79.7335 32.8057L78.3948 33.3626C78.6474 33.9774 79.0781 34.5028 79.6315 34.8711C80.1849 35.2394 80.8357 35.4338 81.5005 35.4294C83.3028 35.4294 84.8267 34.3692 84.8267 31.7883V25.5064H83.3638L83.3628 26.0751ZM81.6011 30.9113C81.334 30.9038 81.071 30.843 80.8277 30.7325C80.5844 30.622 80.3655 30.464 80.1841 30.2677C80.0026 30.0715 79.8622 29.8411 79.771 29.5898C79.6799 29.3386 79.6398 29.0717 79.6532 28.8048C79.6385 28.5362 79.6774 28.2675 79.7678 28.0141C79.8582 27.7608 79.9982 27.528 80.1795 27.3294C80.3609 27.1308 80.58 26.9704 80.8241 26.8574C81.0682 26.7444 81.3323 26.6813 81.6011 26.6716C81.8654 26.6846 82.1243 26.7507 82.3625 26.8658C82.6006 26.981 82.8132 27.143 82.9875 27.342C83.1617 27.5411 83.2942 27.7732 83.3768 28.0245C83.4595 28.2758 83.4908 28.5412 83.4688 28.8048C83.4896 29.0668 83.4574 29.3303 83.374 29.5796C83.2906 29.8288 83.1579 30.0587 82.9836 30.2554C82.8093 30.4522 82.5972 30.6118 82.3598 30.7247C82.1225 30.8375 81.8648 30.9014 81.6022 30.9123L81.6011 30.9113ZM101.656 21.7947H97.9795V32.0753H99.5131V28.1794H101.655C102.087 28.195 102.518 28.1244 102.922 27.9719C103.327 27.8193 103.697 27.5878 104.011 27.2907C104.325 26.9937 104.577 26.6372 104.752 26.2419C104.927 25.8465 105.022 25.4203 105.03 24.9881C105.022 24.5559 104.928 24.1297 104.753 23.7343C104.578 23.339 104.326 22.9823 104.012 22.6852C103.699 22.3881 103.329 22.1564 102.924 22.0037C102.52 21.851 102.089 21.7803 101.657 21.7957L101.656 21.7947ZM101.696 26.7508H99.5131V23.2265H101.697C102.169 23.2219 102.623 23.4048 102.961 23.7351C103.298 24.0654 103.49 24.516 103.496 24.9881C103.488 25.4597 103.295 25.9094 102.959 26.2396C102.622 26.5699 102.168 26.7539 101.697 26.7519L101.696 26.7508ZM111.182 25.274C110.621 25.2412 110.064 25.3726 109.577 25.652C109.091 25.9314 108.696 26.3468 108.442 26.8472L109.806 27.4169C109.941 27.1692 110.146 26.9664 110.395 26.8333C110.645 26.7002 110.927 26.6425 111.208 26.6673C111.598 26.6293 111.986 26.7474 112.289 26.9955C112.591 27.2436 112.783 27.6016 112.822 27.9909V28.098C112.329 27.8363 111.779 27.7002 111.221 27.7018C109.753 27.7018 108.258 28.5092 108.258 30.016C108.272 30.3338 108.35 30.6456 108.487 30.9327C108.624 31.2199 108.818 31.4766 109.056 31.6876C109.294 31.8986 109.572 32.0597 109.873 32.1613C110.175 32.2628 110.494 32.3028 110.811 32.2788C111.198 32.3017 111.583 32.2204 111.928 32.0435C112.272 31.8667 112.563 31.6007 112.77 31.2732H112.822V32.0668H114.303V28.1237C114.31 27.7242 114.231 27.3278 114.073 26.9609C113.914 26.5941 113.68 26.265 113.385 25.9957C113.089 25.7263 112.74 25.5228 112.361 25.3986C111.981 25.2743 111.579 25.2323 111.182 25.2751V25.274ZM110.996 30.9091C110.493 30.9091 109.792 30.6585 109.792 30.0363C109.792 29.2428 110.664 28.9387 111.418 28.9387C111.908 28.9256 112.393 29.0444 112.821 29.2824C112.765 29.7285 112.55 30.1392 112.215 30.4386C111.879 30.7381 111.447 30.906 110.997 30.9113L110.996 30.9091ZM119.701 25.4979L117.941 29.956H117.889L116.063 25.4979H114.409L117.148 31.7348L115.586 35.2013H117.187L121.408 25.5043L119.701 25.4979ZM105.876 32.0764H107.411V21.7957H105.876V32.0764Z" fill="#3B587E"/>
<path d="M51.8989 18.0601V13.114H53.4113C53.7462 13.0983 54.0808 13.1512 54.3945 13.2694C54.7082 13.3877 54.9944 13.5688 55.2356 13.8017C55.4648 14.0373 55.6436 14.3171 55.7612 14.6241C55.8788 14.931 55.9326 15.2587 55.9195 15.5871C55.9326 15.9155 55.8787 16.2431 55.7611 16.5501C55.6435 16.857 55.4647 17.1368 55.2356 17.3724C54.9944 17.6053 54.7082 17.7865 54.3945 17.9047C54.0808 18.023 53.7462 18.0759 53.4113 18.0601H51.8989ZM52.5343 17.4523H53.4113C53.6589 17.4653 53.9066 17.4284 54.1398 17.344C54.3729 17.2595 54.5867 17.1291 54.7686 16.9606C54.9418 16.778 55.0756 16.5618 55.1617 16.3254C55.2478 16.0889 55.2843 15.8373 55.2689 15.5861C55.291 15.3362 55.2582 15.0844 55.1727 14.8485C55.0873 14.6127 54.9512 14.3983 54.7741 14.2206C54.597 14.0428 54.3831 13.906 54.1475 13.8197C53.912 13.7334 53.6603 13.6996 53.4103 13.7209H52.5334L52.5343 17.4523Z" fill="#3B587E" stroke="#3B587E" stroke-width="0.190199" stroke-miterlimit="10"/>
<path d="M56.8086 18.0584V13.1123H57.444V18.0584H56.8086Z" fill="#3B587E" stroke="#3B587E" stroke-width="0.190199" stroke-miterlimit="10"/>
<path d="M59.9734 18.1704C59.5946 18.1641 59.2269 18.0412 58.9205 17.8185C58.5784 17.5865 58.3373 17.2333 58.2461 16.8302L58.8263 16.5962C58.8933 16.8635 59.0415 17.1034 59.2505 17.2829C59.448 17.4627 59.7054 17.5624 59.9725 17.5626C60.2261 17.5701 60.4751 17.4939 60.6811 17.3457C60.7751 17.2793 60.8512 17.1906 60.9025 17.0875C60.9538 16.9844 60.9787 16.8701 60.975 16.7551C60.981 16.6327 60.9575 16.5107 60.9063 16.3995C60.8552 16.2882 60.7779 16.1909 60.6811 16.1159C60.3973 15.9254 60.0835 15.7842 59.7527 15.6983C59.3842 15.599 59.0437 15.4157 58.7578 15.1628C58.6458 15.0544 58.5577 14.9238 58.4992 14.7793C58.4408 14.6348 58.4132 14.4797 58.4183 14.3239C58.4184 14.1485 58.4562 13.9753 58.5291 13.8158C58.6019 13.6563 58.7082 13.5143 58.8406 13.3993C59.1408 13.1295 59.5349 12.9882 59.9382 13.0056C60.3051 12.9888 60.6665 13.0997 60.9607 13.3195C61.1964 13.4922 61.3747 13.7318 61.4724 14.0071L60.8922 14.2487C60.8388 14.0745 60.7312 13.9219 60.585 13.8131C60.4016 13.6819 60.1818 13.6114 59.9563 13.6114C59.7308 13.6114 59.511 13.6819 59.3276 13.8131C59.2472 13.8709 59.1817 13.947 59.1367 14.0352C59.0917 14.1234 59.0684 14.2211 59.0688 14.3201C59.0687 14.4112 59.0902 14.501 59.1315 14.5822C59.1728 14.6634 59.2329 14.7336 59.3066 14.7871C59.5191 14.9404 59.7562 15.0562 60.0076 15.1295C60.2156 15.1942 60.4198 15.2704 60.6192 15.3578C60.7949 15.4381 60.9616 15.5366 61.1167 15.6517C61.2807 15.7682 61.4118 15.9252 61.4972 16.1073C61.5855 16.3059 61.6291 16.5216 61.6246 16.7389C61.6289 16.9622 61.578 17.1831 61.4762 17.3819C61.3844 17.5619 61.249 17.7162 61.0825 17.8308C60.7548 18.0518 60.3686 18.17 59.9734 18.1704Z" fill="#3B587E" stroke="#3B587E" stroke-width="0.190199" stroke-miterlimit="10"/>
<path d="M63.1686 18.0576H62.5332V13.1115H64.2187C64.6217 13.1052 65.0115 13.2548 65.3068 13.5291C65.4516 13.6637 65.5671 13.8267 65.6461 14.0079C65.7251 14.1892 65.7659 14.3848 65.7659 14.5825C65.7659 14.7802 65.7251 14.9758 65.6461 15.157C65.5671 15.3383 65.4516 15.5013 65.3068 15.6359C65.0115 15.9102 64.6217 16.0598 64.2187 16.0535H63.1724L63.1686 18.0576ZM63.1686 15.4457H64.2329C64.3532 15.4507 64.473 15.4292 64.584 15.3827C64.6949 15.3362 64.7943 15.2658 64.875 15.1765C65.0298 15.0175 65.1165 14.8044 65.1165 14.5825C65.1165 14.3606 65.0298 14.1475 64.875 13.9885C64.7944 13.899 64.6951 13.8284 64.5841 13.7817C64.4732 13.735 64.3532 13.7134 64.2329 13.7184H63.1686V15.4457Z" fill="#3B587E" stroke="#3B587E" stroke-width="0.190199" stroke-miterlimit="10"/>
<path d="M70.61 17.4195C70.1286 17.8996 69.4765 18.1692 68.7966 18.1692C68.1167 18.1692 67.4646 17.8996 66.9832 17.4195C66.5151 16.9235 66.2544 16.2672 66.2544 15.5852C66.2544 14.9032 66.5151 14.2469 66.9832 13.7509C67.221 13.5128 67.5034 13.324 67.8142 13.1952C68.125 13.0663 68.4582 13 68.7947 13C69.1312 13 69.4643 13.0663 69.7752 13.1952C70.086 13.324 70.3684 13.5128 70.6062 13.7509C71.0753 14.2457 71.3368 14.9015 71.3368 15.5833C71.3368 16.2651 71.0753 16.9209 70.6062 17.4157L70.61 17.4195ZM67.4521 17.0048C67.8088 17.3609 68.2922 17.5608 68.7961 17.5608C69.3001 17.5608 69.7835 17.3609 70.1401 17.0048C70.4938 16.6166 70.6899 16.1104 70.6899 15.5852C70.6899 15.06 70.4938 14.5538 70.1401 14.1656C69.7835 13.8095 69.3001 13.6096 68.7961 13.6096C68.2922 13.6096 67.8088 13.8095 67.4521 14.1656C67.0988 14.554 66.903 15.0602 66.903 15.5852C66.903 16.1102 67.0988 16.6164 67.4521 17.0048Z" fill="#3B587E" stroke="#3B587E" stroke-width="0.190199" stroke-miterlimit="10"/>
<path d="M72.231 18.0584V13.1123H73.0052L75.4088 16.9598H75.4364L75.4088 16.0086V13.1123H76.0442V18.0584H75.3784L72.8644 14.0235H72.8368L72.8644 14.9747V18.0584H72.231Z" fill="#3B587E" stroke="#3B587E" stroke-width="0.190199" stroke-miterlimit="10"/>
<path d="M77.1777 18.0584V13.1123H77.8131V18.0584H77.1777Z" fill="#3B587E" stroke="#3B587E" stroke-width="0.190199" stroke-miterlimit="10"/>
<path d="M78.9487 18.0576V13.1116H80.7379C81.1094 13.1048 81.4693 13.241 81.7433 13.492C81.8803 13.6117 81.9894 13.7601 82.0629 13.9265C82.1364 14.093 82.1724 14.2736 82.1684 14.4556C82.1728 14.6769 82.1087 14.8941 81.9848 15.0776C81.8644 15.2566 81.6959 15.398 81.4988 15.4857V15.5133C81.7373 15.5929 81.9467 15.7419 82.0999 15.9413C82.2557 16.1433 82.3385 16.392 82.3349 16.647C82.3391 16.8375 82.3014 17.0266 82.2243 17.2009C82.1472 17.3752 82.0326 17.5303 81.8888 17.6553C81.6017 17.9187 81.2245 18.0621 80.8349 18.0557L78.9487 18.0576ZM79.5832 15.2317H80.7369C80.8447 15.2365 80.9522 15.2178 81.0519 15.1767C81.1516 15.1356 81.2412 15.0732 81.3143 14.9939C81.452 14.8566 81.53 14.6704 81.5312 14.476C81.5325 14.2815 81.4569 14.0943 81.3209 13.9552C81.2513 13.8776 81.1655 13.8162 81.0695 13.7754C80.9735 13.7346 80.8697 13.7155 80.7655 13.7194H79.5794L79.5832 15.2317ZM79.5832 17.4498H80.8615C80.9734 17.4534 81.0847 17.4322 81.1874 17.3878C81.2902 17.3434 81.3819 17.2769 81.456 17.193C81.6002 17.0419 81.6815 16.8416 81.6833 16.6328C81.6769 16.4132 81.5838 16.2051 81.4245 16.0538C81.2652 15.9025 81.0526 15.8204 80.833 15.8252H79.5794L79.5832 17.4498Z" fill="#3B587E" stroke="#3B587E" stroke-width="0.190199" stroke-miterlimit="10"/>
<path d="M83.1851 18.0584V13.1123H83.8204V17.4515H85.9615V18.0584H83.1851Z" fill="#3B587E" stroke="#3B587E" stroke-width="0.190199" stroke-miterlimit="10"/>
<path d="M89.6519 13.7201H87.3995V15.2886H89.4303V15.8821H87.3995V17.4506H89.6519V18.0584H86.7642V13.1123H89.6519V13.7201Z" fill="#3B587E" stroke="#3B587E" stroke-width="0.190199" stroke-miterlimit="10"/>
<path d="M95.1899 13.7201H92.9366V15.2886H94.9683V15.8821H92.9366V17.4506H95.1899V18.0584H92.2993V13.1123H95.187L95.1899 13.7201Z" fill="#3B587E" stroke="#3B587E" stroke-width="0.190199" stroke-miterlimit="10"/>
<path d="M96.1851 18.0584V13.1123H96.9584L99.3619 16.9598H99.3895L99.3619 16.0086V13.1123H99.9983V18.0584H99.3325L96.8176 14.0235H96.79L96.8176 14.9747V18.0584H96.1851Z" fill="#3B587E" stroke="#3B587E" stroke-width="0.190199" stroke-miterlimit="10"/>
<path d="M28.2033 34.4278C27.9493 34.433 27.7002 34.3574 27.4919 34.2119L27.4463 34.2614L27.3721 34.1872C27.3455 34.152 27.3198 34.1149 27.296 34.0778L37.212 24.158L40.6604 27.6044L29.081 34.1824C28.8138 34.337 28.5119 34.4214 28.2033 34.4278ZM27.1163 33.7136C27.0358 33.4823 26.9965 33.2386 27.0002 32.9937V14.7793C26.9981 14.5335 27.0347 14.289 27.1087 14.0546L36.942 23.8879L27.1182 33.7127L27.1163 33.7136ZM41.0008 27.4104L37.4821 23.8917L41.1064 20.2627L41.1254 20.2817L45.1395 22.586C45.3708 22.6942 45.5698 22.861 45.7166 23.0699C45.8634 23.2787 45.953 23.5224 45.9764 23.7767C45.9528 24.0306 45.8631 24.2739 45.7162 24.4824C45.5694 24.691 45.3706 24.8575 45.1395 24.9654L41.1254 27.2706L41.0883 27.3077L41.1244 27.3438L41.0056 27.4114L41.0008 27.4104ZM37.2082 23.6178L27.2855 13.6923C27.3116 13.6561 27.3406 13.6221 27.3721 13.5905C27.4678 13.477 27.5881 13.3868 27.7239 13.3269C27.8597 13.2669 28.0074 13.2387 28.1557 13.2444C28.4819 13.2555 28.8001 13.3484 29.081 13.5145L40.7108 20.1191L37.213 23.6169L37.2082 23.6178Z" fill="#3B587E"/>
</svg>