<svg width="148" height="48" viewBox="0 0 148 48" fill="none" xmlns="http://www.w3.org/2000/svg">
<rect x="0.5" y="0.5" width="147" height="47" rx="3.5" stroke="#3B587E"/>
<path d="M44.445 23.3291C44.4546 22.6275 44.6415 21.9397 44.9881 21.3297C45.3348 20.7197 45.83 20.2072 46.4278 19.8399C46.0478 19.2972 45.5466 18.8507 44.9638 18.5357C44.3811 18.2208 43.7329 18.046 43.0708 18.0254C41.6586 17.877 40.2891 18.8708 39.5692 18.8708C38.8493 18.8708 37.7272 18.033 36.5346 18.0615C35.7627 18.0864 35.0104 18.3108 34.3511 18.713C33.6917 19.1152 33.1479 19.6813 32.7725 20.3562C31.1463 23.1721 32.3588 27.3118 33.9137 29.5876C34.6935 30.7021 35.6045 31.947 36.7961 31.9032C37.963 31.8547 38.3986 31.1596 39.807 31.1596C41.2154 31.1596 41.6139 31.9032 42.8273 31.8757C44.0789 31.8557 44.8682 30.7563 45.6204 29.6304C46.1815 28.8362 46.6135 27.9584 46.9005 27.0294C46.1731 26.7218 45.5523 26.2069 45.1157 25.5489C44.679 24.8908 44.4458 24.1188 44.445 23.3291Z" fill="#3B587E"/>
<path d="M42.1495 16.5256C42.8322 15.7062 43.1687 14.6528 43.0873 13.5894C42.0442 13.6989 41.0807 14.1974 40.3889 14.9857C40.0506 15.3707 39.7916 15.8186 39.6266 16.3039C39.4616 16.7891 39.3938 17.3021 39.4272 17.8135C39.9488 17.8187 40.4649 17.7055 40.9364 17.4824C41.4079 17.2594 41.8227 16.9322 42.1495 16.5256Z" fill="#3B587E"/>
<path d="M59.1911 29.0808H55.2102L54.2535 31.9043H52.5674L56.3381 21.4595H58.0898L61.8615 31.9043H60.1497L59.1911 29.0808ZM55.622 27.7779H58.7774L57.2225 23.1922H57.1788L55.622 27.7779Z" fill="#3B587E"/>
<path d="M70.0064 28.0971C70.0064 30.4632 68.7396 31.9838 66.8281 31.9838C66.3441 32.0091 65.8628 31.8976 65.4391 31.6622C65.0155 31.4267 64.6667 31.0768 64.4326 30.6524H64.3964V34.4241H62.833V24.2893H64.346V25.556H64.3746C64.6192 25.1333 64.974 24.7848 65.401 24.5476C65.828 24.3105 66.3114 24.1936 66.7996 24.2094C68.732 24.2094 70.0064 25.7377 70.0064 28.0971ZM68.4001 28.0971C68.4001 26.5555 67.6032 25.5418 66.3878 25.5418C65.1934 25.5418 64.3907 26.5765 64.3907 28.0971C64.3907 29.6177 65.1943 30.6591 66.3878 30.6591C67.6032 30.6591 68.4001 29.6529 68.4001 28.0971Z" fill="#3B587E"/>
<path d="M78.3868 28.0971C78.3868 30.4632 77.1201 31.9838 75.2086 31.9838C74.7246 32.0091 74.2432 31.8976 73.8196 31.6622C73.396 31.4267 73.0471 31.0768 72.8131 30.6524H72.7769V34.4241H71.2173V24.2893H72.7303V25.556H72.7589C73.0035 25.1333 73.3583 24.7848 73.7853 24.5476C74.2123 24.3105 74.6957 24.1936 75.1839 24.2094C77.1135 24.2094 78.3868 25.7377 78.3868 28.0971ZM76.7806 28.0971C76.7806 26.5555 75.9837 25.5418 74.7683 25.5418C73.5739 25.5418 72.7712 26.5765 72.7712 28.0971C72.7712 29.6177 73.5748 30.6591 74.7683 30.6591C75.9837 30.6591 76.7806 29.6529 76.7806 28.0971Z" fill="#3B587E"/>
<path d="M83.9272 28.9946C84.0432 30.0303 85.0494 30.7064 86.4245 30.7064C87.7417 30.7064 88.6898 30.0265 88.6898 29.0897C88.6898 28.2795 88.1192 27.7935 86.765 27.4607L85.4117 27.1345C83.4936 26.6713 82.6034 25.7746 82.6034 24.3186C82.6034 22.5164 84.1735 21.2754 86.4074 21.2754C88.6147 21.2754 90.1277 22.5117 90.1781 24.3186H88.5957C88.5006 23.2725 87.6399 22.6467 86.3808 22.6467C85.1217 22.6467 84.2601 23.2829 84.2601 24.2102C84.2601 24.9481 84.8107 25.3827 86.1563 25.7156L87.3071 26.0009C89.4496 26.5078 90.3407 27.3684 90.3407 28.8957C90.3407 30.85 88.784 32.0739 86.3085 32.0739C83.9919 32.0739 82.4284 30.8785 82.3276 28.9899L83.9272 28.9946Z" fill="#3B587E"/>
<path d="M93.7127 22.4888V24.2909H95.1601V25.5272H93.7127V29.7249C93.7127 30.3773 93.998 30.6806 94.639 30.6806C94.811 30.6777 94.9827 30.6656 95.1535 30.6445V31.8751C94.8672 31.9286 94.5763 31.9528 94.2852 31.9474C92.7436 31.9474 92.1426 31.3682 92.1426 29.8913V25.532H91.0356V24.2957H92.1426V22.4888H93.7127Z" fill="#3B587E"/>
<path d="M95.999 28.0968C95.999 25.7013 97.4103 24.1978 99.6128 24.1978C101.815 24.1978 103.227 25.7032 103.227 28.0968C103.227 30.4905 101.83 31.9959 99.6128 31.9959C97.396 31.9959 95.999 30.4991 95.999 28.0968ZM101.63 28.0968C101.63 26.4535 100.877 25.4835 99.61 25.4835C98.3432 25.4835 97.591 26.4611 97.591 28.0968C97.591 29.7325 98.3432 30.7092 99.61 30.7092C100.877 30.7092 101.63 29.7468 101.63 28.0968Z" fill="#3B587E"/>
<path d="M104.512 24.2892H106.003V25.5854H106.039C106.14 25.1806 106.377 24.8228 106.711 24.5722C107.044 24.3216 107.454 24.1935 107.871 24.2093C108.051 24.2086 108.23 24.2281 108.406 24.2673V25.729C108.179 25.6594 107.942 25.6273 107.704 25.6339C107.477 25.6246 107.251 25.6646 107.041 25.7511C106.83 25.8376 106.641 25.9686 106.487 26.135C106.332 26.3014 106.215 26.4994 106.144 26.7152C106.073 26.9311 106.049 27.1598 106.075 27.3856V31.9019H104.512V24.2892Z" fill="#3B587E"/>
<path d="M115.612 29.6679C115.402 31.0506 114.055 31.9987 112.333 31.9987C110.118 31.9987 108.743 30.5142 108.743 28.1339C108.743 25.7536 110.126 24.1968 112.268 24.1968C114.374 24.1968 115.699 25.6442 115.699 27.9532V28.4886H110.321V28.5837C110.296 28.864 110.331 29.1463 110.424 29.412C110.516 29.6777 110.664 29.9206 110.858 30.1246C111.052 30.3286 111.287 30.489 111.547 30.5952C111.808 30.7015 112.088 30.751 112.369 30.7406C112.739 30.7751 113.109 30.6896 113.426 30.4966C113.743 30.3037 113.989 30.0137 114.128 29.6698L115.612 29.6679ZM110.328 27.395H114.132C114.146 27.143 114.108 26.8909 114.02 26.6544C113.932 26.418 113.796 26.2023 113.621 26.0208C113.445 25.8394 113.234 25.6961 113.001 25.6001C112.768 25.504 112.517 25.4572 112.265 25.4626C112.01 25.461 111.758 25.51 111.522 25.6064C111.287 25.7029 111.073 25.8451 110.893 26.0248C110.712 26.2044 110.569 26.418 110.472 26.6532C110.375 26.8884 110.325 27.1405 110.326 27.395H110.328Z" fill="#3B587E"/>
<path d="M53.4111 16.1094C53.4111 14.4819 54.2767 13.4756 55.672 13.4756C56.1749 13.4507 56.6687 13.6158 57.0554 13.938C57.4422 14.2603 57.6936 14.7162 57.7598 15.2153H56.9837C56.9182 14.9188 56.7504 14.6548 56.5097 14.4697C56.2689 14.2846 55.9707 14.1903 55.6673 14.2032C54.7665 14.2032 54.2025 14.9375 54.2025 16.1056C54.2025 17.2736 54.7656 18.0079 55.6701 18.0079C55.9617 18.0298 56.2518 17.9493 56.4905 17.7804C56.7292 17.6115 56.9016 17.3647 56.978 17.0824H57.7598C57.6842 17.5695 57.4276 18.0102 57.0413 18.3165C56.655 18.6227 56.1674 18.772 55.6758 18.7346C54.2805 18.7393 53.4111 17.734 53.4111 16.1094Z" fill="#3B587E"/>
<path d="M58.6101 16.7219C58.5857 16.4726 58.6137 16.221 58.6923 15.9832C58.771 15.7454 58.8986 15.5267 59.0668 15.3411C59.235 15.1556 59.4403 15.0073 59.6693 14.9058C59.8982 14.8044 60.1459 14.752 60.3964 14.752C60.6469 14.752 60.8946 14.8044 61.1236 14.9058C61.3526 15.0073 61.5578 15.1556 61.726 15.3411C61.8943 15.5267 62.0218 15.7454 62.1005 15.9832C62.1791 16.221 62.2071 16.4726 62.1827 16.7219C62.2071 16.9712 62.1791 17.2228 62.1005 17.4606C62.0218 17.6984 61.8943 17.9171 61.726 18.1026C61.5578 18.2882 61.3526 18.4365 61.1236 18.5379C60.8946 18.6394 60.6469 18.6918 60.3964 18.6918C60.1459 18.6918 59.8982 18.6394 59.6693 18.5379C59.4403 18.4365 59.235 18.2882 59.0668 18.1026C58.8986 17.9171 58.771 17.6984 58.6923 17.4606C58.6137 17.2228 58.5857 16.9712 58.6101 16.7219ZM61.4142 16.7219C61.4142 15.901 61.0451 15.4207 60.3983 15.4207C59.7515 15.4207 59.3834 15.8963 59.3834 16.7219C59.3834 17.5475 59.7487 18.0259 60.3983 18.0259C61.048 18.0259 61.4142 17.5503 61.4142 16.7219Z" fill="#3B587E"/>
<path d="M63.1836 14.8303H63.9036V15.4324H63.9597C64.0544 15.2163 64.2141 15.035 64.4167 14.914C64.6192 14.7929 64.8545 14.7381 65.0897 14.7571C65.2738 14.7442 65.4584 14.7726 65.63 14.8403C65.8017 14.908 65.956 15.0132 66.0817 15.1483C66.2073 15.2834 66.3012 15.4448 66.3563 15.6209C66.4115 15.797 66.4266 15.9831 66.4004 16.1658V18.6179H65.6528V16.3541C65.6528 15.7454 65.3884 15.4429 64.8358 15.4429C64.7107 15.4371 64.5858 15.4585 64.4697 15.5054C64.3536 15.5524 64.249 15.6239 64.1631 15.7151C64.0772 15.8062 64.012 15.9148 63.972 16.0335C63.932 16.1522 63.9181 16.2781 63.9312 16.4026V18.6188H63.1836V14.8303Z" fill="#3B587E"/>
<path d="M68.9431 14.7568C69.7991 14.7568 70.3517 15.1535 70.425 15.8212H69.7078C69.6384 15.5434 69.3673 15.3656 68.9469 15.3656C68.5264 15.3656 68.2126 15.5634 68.2126 15.8592C68.2126 16.0856 68.4028 16.2283 68.8146 16.3225L69.4443 16.468C70.1644 16.6354 70.502 16.9436 70.502 17.5019C70.502 18.2153 69.8362 18.6918 68.9326 18.6918C68.029 18.6918 67.444 18.2847 67.3774 17.6132H68.126C68.19 17.7734 68.306 17.9074 68.4554 17.9937C68.6049 18.08 68.779 18.1135 68.9497 18.0888C69.4158 18.0888 69.7468 17.8805 69.7468 17.577C69.7468 17.3507 69.5689 17.2051 69.1894 17.1148L68.5293 16.9616C67.8093 16.7914 67.4754 16.468 67.4754 15.9039C67.4716 15.2248 68.087 14.7568 68.9431 14.7568Z" fill="#3B587E"/>
<path d="M71.4395 14.1966L72.3126 13H73.1848L72.2118 14.1966H71.4395ZM71.5165 14.83H72.2603V18.6176H71.5165V14.83Z" fill="#3B587E"/>
<path d="M73.4261 18.9968H74.187C74.2507 19.2717 74.5675 19.4486 75.0706 19.4486C75.6936 19.4486 76.0617 19.1528 76.0617 18.6525V17.9258H76.0056C75.8884 18.1293 75.7172 18.2965 75.5109 18.4088C75.3046 18.5211 75.0712 18.5741 74.8366 18.5621C73.8693 18.5621 73.272 17.8145 73.272 16.6807C73.272 15.526 73.8769 14.767 74.8442 14.767C75.0845 14.7583 75.3226 14.8158 75.5324 14.9332C75.7423 15.0507 75.9158 15.2235 76.0342 15.4328H76.0931V14.8278H76.8094V18.6477C76.8094 19.5142 76.1312 20.064 75.0592 20.064C74.1176 20.0649 73.506 19.6407 73.4261 18.9968ZM76.0846 16.6769C76.0846 15.9226 75.6946 15.4404 75.0573 15.4404C74.42 15.4404 74.0529 15.9236 74.0529 16.6769C74.0529 17.4302 74.4143 17.9134 75.0573 17.9134C75.7003 17.9134 76.0846 17.4378 76.0846 16.6769Z" fill="#3B587E"/>
<path d="M81.1979 18.6171H80.4779V18.015H80.4179C80.3224 18.233 80.1609 18.4154 79.9561 18.5366C79.7512 18.6578 79.5136 18.7116 79.2765 18.6904C79.0933 18.7035 78.9094 18.6753 78.7385 18.6081C78.5675 18.5408 78.4138 18.4361 78.2886 18.3016C78.1634 18.1671 78.07 18.0063 78.0151 17.8309C77.9602 17.6556 77.9454 17.4702 77.9715 17.2883V14.8296H78.7201V17.0943C78.7201 17.7059 78.9665 17.9989 79.5162 17.9989C79.6436 18.0117 79.7723 17.9958 79.8927 17.9523C80.0132 17.9088 80.1223 17.8388 80.2121 17.7475C80.3019 17.6563 80.3701 17.546 80.4116 17.4249C80.4532 17.3038 80.467 17.1749 80.4522 17.0477V14.8296H81.2007L81.1979 18.6171Z" fill="#3B587E"/>
<path d="M85.5903 17.5951C85.4888 17.9405 85.2694 18.2392 84.9703 18.4395C84.6711 18.6397 84.3113 18.7286 83.9533 18.6909C83.7037 18.6975 83.4556 18.6497 83.2263 18.5509C82.997 18.452 82.792 18.3044 82.6255 18.1183C82.459 17.9322 82.3349 17.7121 82.262 17.4733C82.1891 17.2345 82.169 16.9826 82.2032 16.7353C82.17 16.4872 82.1904 16.2349 82.2631 15.9954C82.3358 15.7559 82.4592 15.5349 82.6248 15.3472C82.7904 15.1595 82.9943 15.0096 83.2229 14.9076C83.4515 14.8055 83.6993 14.7538 83.9495 14.7559C85.0034 14.7559 85.6398 15.476 85.6398 16.6659V16.9265H82.9603V16.9683C82.9487 17.1074 82.9662 17.2473 83.0117 17.3792C83.0573 17.5111 83.1299 17.632 83.2249 17.7341C83.3199 17.8363 83.4353 17.9175 83.5635 17.9725C83.6917 18.0275 83.83 18.0552 83.9695 18.0536C84.1483 18.0749 84.3294 18.0426 84.4897 17.9608C84.6501 17.879 84.7826 17.7514 84.8703 17.5942L85.5903 17.5951ZM82.9603 16.3748H84.8731C84.8826 16.2477 84.8653 16.12 84.8225 15.9999C84.7797 15.8798 84.7122 15.77 84.6244 15.6776C84.5366 15.5852 84.4305 15.5121 84.3128 15.4631C84.1951 15.4141 84.0684 15.3903 83.941 15.3932C83.8117 15.3917 83.6834 15.416 83.5637 15.4648C83.4439 15.5136 83.3352 15.5859 83.2438 15.6773C83.1524 15.7688 83.0803 15.8776 83.0316 15.9974C82.9829 16.1172 82.9587 16.2455 82.9603 16.3748Z" fill="#3B587E"/>
<path d="M86.6748 13.3511H87.4224V18.6177H86.6748V13.3511Z" fill="#3B587E"/>
<path d="M88.4602 16.7219C88.4358 16.4726 88.4638 16.221 88.5424 15.9832C88.6211 15.7454 88.7487 15.5267 88.9169 15.3411C89.0851 15.1556 89.2904 15.0073 89.5194 14.9058C89.7483 14.8044 89.996 14.752 90.2465 14.752C90.497 14.752 90.7447 14.8044 90.9737 14.9058C91.2026 15.0073 91.4079 15.1556 91.5761 15.3411C91.7444 15.5267 91.8719 15.7454 91.9506 15.9832C92.0292 16.221 92.0572 16.4726 92.0328 16.7219C92.0572 16.9712 92.0292 17.2228 91.9506 17.4606C91.8719 17.6984 91.7444 17.9171 91.5761 18.1026C91.4079 18.2882 91.2026 18.4365 90.9737 18.5379C90.7447 18.6394 90.497 18.6918 90.2465 18.6918C89.996 18.6918 89.7483 18.6394 89.5194 18.5379C89.2904 18.4365 89.0851 18.2882 88.9169 18.1026C88.7487 17.9171 88.6211 17.6984 88.5424 17.4606C88.4638 17.2228 88.4358 16.9712 88.4602 16.7219ZM91.2642 16.7219C91.2642 15.901 90.8952 15.4207 90.2484 15.4207C89.6016 15.4207 89.2335 15.8963 89.2335 16.7219C89.2335 17.5475 89.5988 18.0259 90.2484 18.0259C90.8981 18.0259 91.2642 17.5503 91.2642 16.7219Z" fill="#3B587E"/>
<path d="M98.2944 17.5951C98.1928 17.9408 97.9731 18.2399 97.6736 18.4401C97.3741 18.6404 97.0137 18.7291 96.6555 18.6909C96.4059 18.6975 96.1578 18.6497 95.9285 18.5509C95.6992 18.452 95.4942 18.3044 95.3276 18.1183C95.1611 17.9322 95.0371 17.7121 94.9642 17.4733C94.8912 17.2345 94.8712 16.9826 94.9054 16.7353C94.8721 16.4872 94.8925 16.2349 94.9653 15.9954C95.038 15.7559 95.1613 15.5349 95.3269 15.3472C95.4925 15.1595 95.6965 15.0096 95.925 14.9076C96.1536 14.8055 96.4014 14.7538 96.6517 14.7559C97.7056 14.7559 98.3419 15.4759 98.3419 16.6659V16.9265H95.6653V16.9683C95.6537 17.1074 95.6712 17.2473 95.7167 17.3792C95.7623 17.5111 95.8349 17.632 95.9299 17.7341C96.025 17.8363 96.1403 17.9175 96.2685 17.9725C96.3967 18.0275 96.535 18.0552 96.6745 18.0536C96.8533 18.0749 97.0344 18.0426 97.1947 17.9608C97.3551 17.879 97.4876 17.7514 97.5753 17.5942L98.2944 17.5951ZM95.6644 16.3748H97.5781C97.5876 16.2477 97.5703 16.12 97.5275 15.9999C97.4847 15.8798 97.4172 15.77 97.3294 15.6776C97.2416 15.5852 97.1355 15.5121 97.0178 15.4631C96.9001 15.4141 96.7734 15.3903 96.646 15.3932C96.5167 15.3917 96.3884 15.416 96.2687 15.4648C96.1489 15.5136 96.0402 15.5859 95.9488 15.6773C95.8574 15.7688 95.7853 15.8776 95.7366 15.9974C95.6879 16.1172 95.6637 16.2455 95.6653 16.3748H95.6644Z" fill="#3B587E"/>
<path d="M99.3418 14.8303H100.066V15.4324H100.122C100.216 15.2163 100.376 15.035 100.579 14.914C100.781 14.7929 101.017 14.7381 101.252 14.7571C101.436 14.7442 101.62 14.7726 101.792 14.8403C101.964 14.908 102.118 15.0132 102.244 15.1483C102.369 15.2834 102.463 15.4448 102.518 15.6209C102.574 15.797 102.589 15.9831 102.562 16.1658V18.6179H101.815V16.3541C101.815 15.7454 101.55 15.4429 100.998 15.4429C100.873 15.4371 100.748 15.4585 100.632 15.5054C100.516 15.5524 100.411 15.6239 100.325 15.7151C100.239 15.8062 100.174 15.9148 100.134 16.0335C100.094 16.1522 100.08 16.2781 100.093 16.4026V18.6188H99.3456L99.3418 14.8303Z" fill="#3B587E"/>
<path d="M108.972 17.5951C108.871 17.9413 108.651 18.2408 108.351 18.4411C108.05 18.6414 107.69 18.7298 107.331 18.6909C107.081 18.6975 106.833 18.6497 106.604 18.5509C106.374 18.452 106.169 18.3044 106.003 18.1183C105.836 17.9322 105.712 17.7121 105.639 17.4733C105.567 17.2345 105.546 16.9826 105.581 16.7353C105.547 16.4872 105.568 16.2349 105.641 15.9954C105.713 15.7559 105.837 15.5349 106.002 15.3472C106.168 15.1595 106.372 15.0096 106.6 14.9076C106.829 14.8055 107.077 14.7538 107.327 14.7559C108.381 14.7559 109.017 15.4759 109.017 16.6659V16.9265H106.343V16.9683C106.331 17.1074 106.348 17.2473 106.394 17.3792C106.44 17.5111 106.512 17.632 106.607 17.7341C106.702 17.8363 106.817 17.9175 106.946 17.9725C107.074 18.0275 107.212 18.0552 107.352 18.0536C107.53 18.0749 107.712 18.0426 107.872 17.9608C108.032 17.879 108.165 17.7514 108.252 17.5942L108.972 17.5951ZM106.343 16.3748H108.255C108.265 16.2477 108.248 16.12 108.205 15.9999C108.162 15.8798 108.094 15.77 108.007 15.6776C107.919 15.5852 107.813 15.5121 107.695 15.4631C107.577 15.4141 107.451 15.3903 107.323 15.3932C107.194 15.3917 107.066 15.416 106.946 15.4648C106.826 15.5136 106.717 15.5859 106.626 15.6773C106.535 15.7688 106.462 15.8776 106.414 15.9974C106.365 16.1172 106.341 16.2455 106.343 16.3748Z" fill="#3B587E"/>
<path d="M110.053 13.3511H110.8V18.6177H110.053V13.3511Z" fill="#3B587E"/>
</svg>